<svg xmlns="http://www.w3.org/2000/svg" viewBox="0 0 123 123" width="123" height="123" role="img" aria-label="Logo byka">
  <defs>
    <linearGradient id="bullGrad" x1="25%" y1="15%" x2="80%" y2="100%">
      <stop offset="0%" stop-color="#b51b31"/>
      <stop offset="55%" stop-color="#b0122a"/>
      <stop offset="100%" stop-color="#981326"/>
    </linearGradient>
  </defs>

  <path
    fill="url(#bullGrad)"
    d="M 71.41 4.02
       C 69.95 2.63, 68.40 4.23, 68.37 5.59
       C 68.33 6.95, 73.16 18.22, 71.01 20.30
       C 68.87 22.39, 45.36 30.96, 42.67 30.60
       C 39.98 30.24, 39.20 17.25, 38.74 15.99
       C 38.29 14.72, 37.45 15.31, 37.17 15.40
       C 36.90 15.49, 35.74 15.06, 35.41 17.07
       C 35.07 19.08, 32.44 37.59, 33.15 39.53
       C 33.86 41.47, 42.86 39.54, 43.94 40.31
       C 45.03 41.09, 47.33 47.38, 46.20 48.85
       C 45.07 50.31, 32.00 55.25, 30.41 57.87
       C 28.81 60.49, 27.26 77.41, 27.07 80.33
       C 26.88 83.26, 26.89 90.15, 28.15 92.99
       C 29.41 95.82, 40.56 112.67, 42.18 114.37
       C 43.80 116.07, 46.98 113.69, 47.57 113.39
       C 48.16 113.09, 49.98 112.38, 49.24 110.74
       C 48.50 109.10, 39.34 95.53, 38.65 93.67
       C 37.95 91.82, 40.33 88.84, 40.90 88.47
       C 41.47 88.11, 45.14 88.70, 45.51 89.26
       C 45.88 89.81, 44.42 93.57, 45.32 95.14
       C 46.21 96.71, 54.99 106.42, 56.20 108.09
       C 57.42 109.76, 59.24 114.58, 59.93 115.15
       C 60.63 115.73, 63.93 115.30, 64.54 114.96
       C 65.15 114.61, 67.83 112.64, 67.29 111.03
       C 66.75 109.43, 58.76 97.42, 58.07 95.73
       C 57.37 94.04, 58.01 90.03, 58.95 90.73
       C 59.89 91.42, 68.20 102.07, 69.35 104.07
       C 70.49 106.06, 71.86 113.78, 72.68 114.66
       C 73.50 115.55, 78.53 114.98, 79.16 114.66
       C 79.78 114.34, 80.55 112.86, 80.14 110.84
       C 79.72 108.82, 74.98 92.60, 74.15 90.44
       C 73.33 88.27, 69.12 85.96, 70.23 84.84
       C 71.34 83.72, 85.34 76.65, 87.49 77.00
       C 89.64 77.35, 95.36 87.59, 96.03 89.06
       C 96.69 90.53, 95.17 93.26, 95.44 94.65
       C 95.71 96.05, 98.65 104.83, 99.26 105.83
       C 99.88 106.84, 102.21 106.92, 102.79 106.72
       C 103.37 106.51, 105.99 104.25, 106.23 103.38
       C 106.46 102.52, 105.53 97.54, 105.64 96.32
       C 105.75 95.10, 108.34 91.54, 107.50 88.77
       C 106.67 86.00, 98.20 68.07, 95.63 63.07
       C 93.07 58.07, 77.61 31.91, 76.70 28.74
       C 75.80 25.57, 83.99 25.55, 84.75 25.01
       C 85.51 24.47, 86.94 24.01, 85.83 22.27
       C 84.71 20.52, 72.86 5.41, 71.41 4.02
       Z"/>
</svg>